# xmcd
#
# Track frame offsets:
#	150
#	10895
#	21705
#	32127
#	44610
#	58297
#	70930
#	84035
#	97760
#	107772
#	118640
#
# Disc length: 1724 seconds
#
# Revision: 0
# Processed by: cddbd v1.4PL0 Copyright (c) Steve Scherf et al.
# Submitted via: OrangeCD 4.1
#
DISCID=8e06ba0b
DTITLE=Various Artist - Blues 'n Brass
DYEAR=1900
DGENRE=
TTITLE0=Sugar Blues
TTITLE1=Basin Street Blues
TTITLE2=Cryin' The Blues
TTITLE3=Fith Avenue Blues
TTITLE4=East Going
TTITLE5=Little Brown Jug
TTITLE6=Blues In The Night
TTITLE7=When My Baby Walks Down The Street
TTITLE8=Limehouse Blues
TTITLE9=Pepperstock Blues
TTITLE10=Steamboat Blues
EXTD=
EXTT0=
EXTT1=
EXTT2=
EXTT3=
EXTT4=
EXTT5=
EXTT6=
EXTT7=
EXTT8=
EXTT9=
EXTT10=
PLAYORDER=
